HIERARCHY
ROOT Hips
{
  OFFSET 40.9192 92.6879 18.85
  CHANNELS 6 Xposition Yposition Zposition Zrotation Xrotation Yrotation
  JOINT LeftUpLeg
  {
    OFFSET 8.64259 1.95398 -2.38835
    CHANNELS 3 Zrotation Xrotation Yrotation
    JOINT LeftLeg
    {
      OFFSET 43.7702 0 0
      CHANNELS 3 Zrotation Xrotation Yrotation
      JOINT LeftFoot
      {
        OFFSET 40.6238 0 0
        CHANNELS 3 Zrotation Xrotation Yrotation
        JOINT LeftToeBase
        {
          OFFSET 12.7242 0 0
          CHANNELS 3 Zrotation Xrotation Yrotation
          End Site
          {
            OFFSET 0 0 0
          }
        }
      }
    }
  }
  JOINT RightUpLeg
  {
    OFFSET -8.2249 1.95398 -2.59336
    CHANNELS 3 Zrotation Xrotation Yrotation
    JOINT RightLeg
    {
      OFFSET 43.5653 0 0
      CHANNELS 3 Zrotation Xrotation Yrotation
      JOINT RightFoot
      {
        OFFSET 40.6238 0 0
        CHANNELS 3 Zrotation Xrotation Yrotation
        JOINT RightToeBase
        {
          OFFSET 12.7242 0 0
          CHANNELS 3 Zrotation Xrotation Yrotation
          End Site
          {
            OFFSET 0 0 0
          }
        }
      }
    }
  }
  JOINT Spine
  {
    OFFSET 0.165834 0.87714 6.61349
    CHANNELS 3 Zrotation Xrotation Yrotation
    JOINT Spine1
    {
      OFFSET 7.38963 1.71661e-005 0
      CHANNELS 3 Zrotation Xrotation Yrotation
      JOINT Spine2
      {
        OFFSET 11.9445 1.14441e-005 0
        CHANNELS 3 Zrotation Xrotation Yrotation
        JOINT Spine3
        {
          OFFSET 14.7254 4.19617e-005 0
          CHANNELS 3 Zrotation Xrotation Yrotation
          JOINT Spine4
          {
            OFFSET 10.9679 0 0
            CHANNELS 3 Zrotation Xrotation Yrotation
            JOINT RightShoulder
            {
              OFFSET 2.46616 -1.6653 3.69651
              CHANNELS 3 Zrotation Xrotation Yrotation
              JOINT RightArm
              {
                OFFSET 13.0012 0 0
                CHANNELS 3 Zrotation Xrotation Yrotation
                JOINT RightForeArm
                {
                  OFFSET 28.7848 1.52588e-005 0
                  CHANNELS 3 Zrotation Xrotation Yrotation
                  JOINT RightHand
                  {
                    OFFSET 26.5688 1.52588e-005 0
                    CHANNELS 3 Zrotation Xrotation Yrotation
                    End Site
                    {
                      OFFSET 0 0 0
                    }
                  }
                }
              }
            }
            JOINT LeftShoulder
            {
              OFFSET 2.38034 -1.29275 -3.7523
              CHANNELS 3 Zrotation Xrotation Yrotation
              JOINT LeftArm
              {
                OFFSET 16.3182 6.10351e-005 0
                CHANNELS 3 Zrotation Xrotation Yrotation
                JOINT LeftForeArm
                {
                  OFFSET 27.0901 0 0
                  CHANNELS 3 Zrotation Xrotation Yrotation
                  JOINT LeftHand
                  {
                    OFFSET 24.5451 1.52588e-005 0
                    CHANNELS 3 Zrotation Xrotation Yrotation
                    End Site
                    {
                      OFFSET 0 0 0
                    }
                  }
                }
              }
            }
            JOINT Neck
            {
              OFFSET 5.0226 -0.0266342 0
              CHANNELS 3 Zrotation Xrotation Yrotation
              JOINT Head
              {
                OFFSET 6.69363 2.86102e-005 0
                CHANNELS 3 Zrotation Xrotation Yrotation
                End Site
                {
                  OFFSET 0 0 0
                }
              }
            }
          }
        }
      }
    }
  }
}
MOTION
Frames:	14
Frame Time:	0.0416667
114.689 26.0412 117.397 10.8955 -0.302105 43.7112 -141.771 47.4646 92.2499 -73.6209 36.7497 -10.3644 51.945 -5.26955 0.962598 48.7895 25.137 38.262 176.381 4.41261 83.6589 -22.7759 -18.346 -6.72437 46.1423 2.38987 2.29715 36.3788 0.36582 -6.74481 -0.869502 7.75284 -89.8722 11.3723 -1.67052 0.422442 -0.297672 -1.65029 0.495561 -22.8414 -1.72023 -0.0993068 -2.82879 -1.72022 -0.0993017 94.6628 -25.4856 -98.5937 -3.0262 28.1964 -41.9009 101.77 -54.6528 -88.0053 20.5675 -7.98181 -32.3094 -89.1828 -21.2383 71.6219 -86.7072 -83.6782 -99.1993 10.8355 11.9725 -129.373 18.7147 2.42893 9.10573 12.8805 -5.26839 -5.54625 40.2602 -3.44646 0.613136 
107.286 24.5955 115.566 15.1405 1.02824 43.3768 -136.929 55.4902 91.5741 -88.0477 39.8134 -5.87631 51.5702 -5.49048 -0.0139369 48.7391 24.703 37.2477 175.425 1.81809 86.0001 -16.8035 -17.1318 -4.49029 43.5946 2.5986 2.55027 37.0886 0.368119 -3.04881 -1.14725 7.42259 -89.3839 12.0411 -1.98996 1.44744 0.370794 -1.92433 1.53361 -22.1742 -2.33294 0.782264 -2.16152 -2.33293 0.782268 95.0999 -20.7601 -98.9996 5.35324 39.4914 -42.1854 157.174 -27.5041 -50.3527 6.88856 -3.20275 -43.5772 -87.4654 -11.5932 71.1851 -38.7712 -83.4902 -55.8138 11.1772 11.2065 -114.14 17.6335 1.75402 6.07595 0.202433 -3.77529 -14.8432 49.9681 0.527452 3.79749 
100.845 22.2255 113.14 19.5596 1.48871 42.6909 -137.626 61.2921 94.1973 -99.3337 45.5465 -2.4231 51.0938 -6.56274 1.20702 50.1599 27.1561 38.2789 175.636 3.0808 86.7055 -23.9155 -13.0991 -4.45247 49.175 -0.0906728 0.299306 41.9036 1.30725 10.4441 -1.19882 7.18182 -89.0185 12.5268 -1.91412 2.18186 0.855279 -1.81627 2.26396 -21.6832 -2.48129 1.50575 -1.67053 -2.48129 1.50575 95.2289 -18.3514 -99.4617 2.99363 47.8092 -38.5421 -55.5264 27.3609 -107.947 -27.5807 12.7595 -29.9845 -88.0378 -6.99838 66.7886 2.01717 -76.9805 -24.7307 11.4903 9.23394 -94.7281 17.4874 1.3681 3.93615 -8.79858 -3.16401 -19.4571 56.3374 1.65589 5.40585 
97.0093 19.1544 110.925 21.3611 2.74313 42.6412 -136.497 65.8174 95.5927 -107.636 48.0071 0.0345424 49.9429 -8.17493 0.648722 50.0195 26.699 37.6335 176.294 -1.83821 86.1385 -22.7087 -17.8131 -5.51269 61.7173 -5.21415 -3.08247 51.6825 2.9316 12.9857 -1.18158 6.73431 -88.9424 13.4205 -1.83243 2.35301 1.74864 -1.72713 2.43133 -20.7869 -2.45479 1.69362 -0.774247 -2.45477 1.69363 96.0558 -12.1061 -99.5336 -0.399254 50.2922 -32.1114 -22.7871 6.0944 -119.062 -12.91 -1.58127 3.46021 -87.7994 -2.80857 64.3525 7.77113 -71.7245 -20.8153 13.3625 6.83206 -85.4423 18.1623 1.31548 3.33645 -12.4287 -2.67288 -24.324 58.5612 4.09983 8.95004 
94.9373 16.9353 109.778 19.893 3.63901 41.1313 -134.081 67.1527 95.6234 -109.909 52.0021 0.325305 50.2647 -8.28366 -0.21798 51.0344 28.5641 38.5892 175.367 -7.46789 84.6617 -11.1211 -22.2562 -4.52166 67.9233 -8.85086 -4.87792 58.7031 2.83082 6.58793 -0.912709 6.38962 -88.8137 14.1031 -1.22779 2.54766 2.43019 -1.1145 2.59916 -20.0954 -1.93656 2.06117 -0.0827759 -1.93656 2.06115 98.3929 -2.56677 -96.0896 7.41758 53.0947 -32.0079 -23.7949 4.87482 -116.218 -12.1849 -0.645243 -0.226132 -88.7399 0.161806 58.6123 28.6789 -68.3464 -0.927951 9.29533 5.57667 -77.666 25.1749 1.2844 1.23467 -10.9398 -3.20678 -27.4544 57.0073 5.84702 12.3065 
94.0456 15.8929 109.392 18.9158 1.94435 40.8549 -134.537 68.0655 99.6383 -112.003 53.1478 0.766389 50.0428 -8.66323 -0.110004 53.1901 29.6465 34.007 175.992 -7.85314 84.1135 -13.3462 -25.611 -5.37656 68.58 -9.07171 -4.92771 61.1581 1.98637 1.54205 -0.451455 6.45258 -88.6552 13.965 -0.237792 2.73007 2.29124 -0.117462 2.73787 -20.2238 -1.04705 2.53264 -0.211181 -1.04705 2.53261 99.622 18.2412 -106.058 4.8934 61.3878 -1.17767 -18.4296 0.702792 -119.016 -15.1714 -0.79976 0.552972 -87.6323 2.56522 59.7074 32.7234 -61.9244 15.2885 1.02407 -0.609824 -90.3605 40.8411 3.06258 3.6646 -3.92877 -5.70894 -26.1341 49.9465 4.75897 14.3014 
94.0305 16.0332 110.065 20.0817 2.92621 40.9876 -133.751 69.0538 97.8065 -113.408 49.1628 1.44992 51.3151 -7.24073 2.89158 55.162 27.3685 22.0912 176.777 -6.46223 85.1352 -16.745 -25.0265 -6.18337 68.8001 -9.02904 -4.8673 61.2084 1.75995 0.555212 -0.496205 6.81744 -88.3412 13.2294 -0.184988 3.34492 1.55412 -0.0376746 3.34981 -20.9498 -1.18123 3.13509 -0.93713 -1.18122 3.13509 102.591 29.354 -137.92 -63.0229 52.8009 91.8627 -14.8363 -7.38359 -123.088 -15.7765 -0.418931 -2.20751 -92.232 -16.8985 61.7283 21.586 -46.3605 22.1975 27.3896 -3.15407 -137.248 50.162 9.12938 13.6612 5.36362 -8.58043 -27.5588 42.1415 2.76468 14.0076 
94.2623 17.9416 110.374 22.1565 3.06861 44.7315 -141.188 67.9854 102.996 -111.53 36.3987 1.71198 51.4119 -6.10591 3.95192 54.4652 22.784 10.2765 178.373 -4.32469 90.0955 -21.2076 -23.1078 -5.52447 65.48 -7.14019 -4.09547 63.1511 2.30017 2.26813 -0.716224 7.50148 -88.3112 11.8683 -0.629863 3.43091 0.19286 -0.478344 3.45528 -22.3128 -1.63142 3.08358 -2.30015 -1.63141 3.08359 76.5954 0.899831 -168.154 -97.2929 13.875 78.2697 -13.6338 -5.63366 -117.347 -16.7254 -0.153622 -4.00365 -97.6663 -38.2388 63.0009 8.22917 -18.0403 21.6926 39.4972 -27.9903 -131.594 58.2371 13.7125 19.0616 9.18072 -9.68352 -22.7246 40.7692 -2.2485 5.63523 
95.5176 20.2834 108.71 20.6312 2.88736 48.5395 -148.666 56.2893 107.729 -98.9096 29.015 -0.933941 50.3195 -5.79919 2.81283 52.0214 19.3849 5.5689 176.174 0.700837 91.282 -25.1816 -17.7815 -2.63753 63.7709 -4.80522 -2.8893 61.4423 2.66628 4.50008 -0.676528 7.73549 -88.4384 11.4012 -0.617308 3.17241 -0.273489 -0.477166 3.19648 -22.7837 -1.54183 2.84069 -2.77109 -1.54184 2.84071 34.6443 -37.3167 176.259 -121.824 19.3782 43.9424 -14.1149 3.17171 -107.286 -20.9284 -1.04604 0.673279 -99.3367 -42.6894 62.1478 12.6921 -12.5192 11.0196 45.724 -35.2572 -126.84 46.3294 12.2988 22.5979 11.433 -10.0729 -12.6924 39.2386 -8.59642 -4.37683 
96.2723 22.4834 104.314 12.2545 -3.40464 52.0721 -151.951 36.1583 109.187 -71.8031 27.1186 -6.8 41.3125 -12.2398 -6.78191 48.1102 16.7052 9.00975 175.211 10.0485 90.9244 -34.1835 -17.6061 -1.19083 63.0666 -2.64045 -1.60173 63.1074 4.82091 12.7333 0.211212 7.58506 -88.6763 11.6859 1.04104 2.5277 0.0130709 1.15125 2.47947 -22.5029 0.233528 2.72357 -2.49026 0.233539 2.72356 10.4948 -58.1521 167.23 -124.294 44.3997 23.171 -16.7966 0.727533 -101.601 -21.6693 -1.12201 0.948938 -107.002 -47.7838 53.0145 14.5525 -22.1551 7.87483 43.6257 -38.5981 -130.698 39.2199 9.32061 20.0082 13.5073 -9.58959 -13.9322 36.7826 -7.57557 -4.4351 
96.0868 22.8511 99.1907 5.40674 -9.55723 53.4249 -162.128 15.1088 104.288 -39.9953 19.3137 -5.22224 36.1012 -14.6621 -12.1015 40.6684 10.0643 10.5567 173.791 16.4603 90.6291 -41.678 -21.3649 0.199743 66.7733 -3.39134 -1.88153 67.9069 4.42745 8.37142 0.60245 7.28918 -88.7058 12.271 1.81096 2.38058 0.599279 1.91394 2.29858 -21.9226 1.01209 2.81448 -1.90993 1.01208 2.81447 11.5517 -63.9864 171.84 -111.645 54.556 10.2535 -17.1976 -3.61626 -95.4628 -24.4691 -1.04759 0.119765 -114.44 -49.6535 43.6238 21.3729 -40.1309 9.35715 29.7941 -36.1578 -145.11 29.6772 6.06283 16.8778 9.49644 -6.04846 -20.6295 40.5837 -2.30189 -1.87091 
95.4611 21.145 93.7251 -1.38089 -14.6752 56.5191 -167.993 3.04816 101.18 -14.387 17.3528 -1.08522 35.8526 -14.5021 -9.05282 36.7721 6.37562 7.15269 169.219 19.8713 92.011 -45.4079 -20.3861 5.0115 69.7519 -4.35007 -2.37769 75.1605 2.73273 1.20746 0.954078 6.71071 -89.2196 13.4419 2.27067 1.27799 1.77242 2.32472 1.17679 -20.7685 1.78164 1.90136 -0.755907 1.78163 1.90137 51.011 -53.4811 -152.894 -89.5738 55.2717 9.92774 -19.7161 -0.740329 -85.7679 -23.6906 -0.373839 -2.84108 -106.893 -49.8797 54.1561 16.0172 -40.7331 -2.43739 21.4562 -29.7407 -149.812 26.9305 5.32293 16.1022 4.24535 -2.1427 -21.125 43.2681 0.512772 -2.30722 
94.137 20.8421 87.989 -2.47006 -17.0748 56.5394 -168.856 0.026027 97.9393 -7.60172 13.1577 -2.06305 35.8667 -14.3583 -9.76143 35.0825 4.84525 9.26693 159.867 24.3045 89.9328 -56.8507 -14.726 10.0352 74.065 -5.92543 -2.9709 69.0422 -1.74311 -12.8558 1.2788 6.61977 -89.5602 13.6314 2.74967 0.522373 1.96335 2.77 0.400759 -20.5906 2.4655 1.32507 -0.577978 2.46549 1.32509 81.4011 -21.1263 -129.374 -58.2893 57.4041 15.7688 -23.2886 -2.54919 -74.9339 -23.7522 -0.198191 -3.72765 -96.7478 -43.2557 66.4232 -0.212904 -28.1343 -17.7338 28.3798 -34.8102 -142.599 21.9355 5.16161 19.6733 -1.51091 -1.49202 -18.6829 47.4071 0.239869 -1.48665 
92.8999 21.159 82.267 -3.78953 -18.7419 54.4431 -168.688 1.61395 95.6152 -6.88995 9.9564 -4.2287 35.469 -15.009 -9.12351 34.899 4.40325 22.6754 148.409 34.323 88.9684 -74.2857 -13.565 10.8657 75.1757 -6.44085 -3.16297 61.5897 -3.59928 -23.0031 1.75924 6.63131 -89.7917 13.6188 3.59014 -0.0513916 1.95279 3.58439 -0.20958 -20.6197 3.43938 1.03125 -0.607045 3.43939 1.03126 95.6631 6.37622 -114.573 -18.6992 59.9982 -3.84726 -21.6106 -2.61477 -60.0817 -24.7867 0.0232484 -4.88351 -89.7905 -31.5074 74.2472 -19.0577 -25.2833 -30.6752 36.4226 -33.9114 -133.933 20.4499 4.8276 19.6533 -2.9814 -1.82481 -20.5355 48.7019 2.29603 3.40483 
